# xmcd CD database file
#
# Track frame offsets:
#	150
#	23805
#	55569
#	76815
#	107327
#	126150
#	143996
#	163800
#	187065
#	211050
#	237052
#	265352
#
# Disc length: 3827 seconds
#
# Revision: 0
# Processed by: cddbd v1.5.1PL0 Copyright (c) Steve Scherf et al.
# Submitted via: CDex 1.51
#
DISCID=9b0ef10c
DTITLE=New Age and New Sound - Vol 152
DYEAR=1900
DGENRE=New Age
TTITLE0=Hariprasad Chaurasia and Ken Lauber - Movement one
TTITLE1=David Antony Clark - The cape of restless souls
TTITLE2=Alquimia and Gleisberg - The marmaids awaken
TTITLE3=Gregg Kofi Brown - Je fre me kofi
TTITLE4=Pierre Bensusan and Brian Gore - L'alchimiste
TTITLE5=Reza Asgarzadeh - Khroma
TTITLE6=DJ Francois - Need 4 love
TTITLE7=GFC - Code 07
TTITLE8=Marcio Rangel - Doce melodia
TTITLE9=Alessandro Scopece - Awakening
TTITLE10=Bliss - Lento
TTITLE11=Regina Carter - Pavane pour une enfante defunte
EXTD=
EXTT0=
EXTT1=
EXTT2=
EXTT3=
EXTT4=
EXTT5=
EXTT6=
EXTT7=
EXTT8=
EXTT9=
EXTT10=
EXTT11=
PLAYORDER=
